<svg xmlns="http://www.w3.org/2000/svg" xmlns:xlink="http://www.w3.org/1999/xlink" width="64" zoomAndPan="magnify" viewBox="0 0 48 48" height="64" preserveAspectRatio="xMidYMid meet" version="1.0"><defs><clipPath id="ae39845fc9"><path d="M 17.253906 28 L 30.476562 28 L 30.476562 36.21875 L 17.253906 36.21875 Z M 17.253906 28 " clip-rule="nonzero"/></clipPath><clipPath id="d00173a84d"><path d="M 23 13.441406 L 25 13.441406 L 25 36.21875 L 23 36.21875 Z M 23 13.441406 " clip-rule="nonzero"/></clipPath></defs><g clip-path="url(#ae39845fc9)"><path fill="#0d0075" d="M 18.375 28.074219 C 18.574219 28.074219 18.773438 28.148438 18.894531 28.320312 L 24.011719 34.355469 L 29.125 28.320312 C 29.375 28.023438 29.820312 28 30.09375 28.246094 C 30.390625 28.496094 30.414062 28.941406 30.167969 29.238281 L 24.53125 35.894531 C 24.257812 36.21875 23.738281 36.21875 23.464844 35.894531 L 17.828125 29.238281 C 17.578125 28.941406 17.605469 28.496094 17.902344 28.246094 C 18.050781 28.121094 18.226562 28.074219 18.375 28.074219 Z M 18.375 28.074219 " fill-opacity="1" fill-rule="nonzero"/></g><g clip-path="url(#d00173a84d)"><path fill="#0d0075" d="M 24.011719 13.796875 C 24.382812 13.796875 24.707031 14.121094 24.707031 14.492188 L 24.707031 35.445312 C 24.707031 35.820312 24.382812 36.140625 24.011719 36.140625 C 23.636719 36.140625 23.316406 35.820312 23.316406 35.445312 L 23.316406 14.492188 C 23.316406 14.121094 23.636719 13.796875 24.011719 13.796875 Z M 24.011719 13.796875 " fill-opacity="1" fill-rule="nonzero"/></g><path stroke-linecap="butt" transform="matrix(0.734694, 0, 0, 0.734694, 15.374693, 18.60278)" fill="none" stroke-linejoin="miter" d="M 0.000417609 0.498125 L 23.479585 0.498125 " stroke="#ffffff" stroke-width="1" stroke-opacity="1" stroke-miterlimit="4"/></svg>